<svg width="1490" height="1490" viewBox="0 0 1490 1490" fill="none" xmlns="http://www.w3.org/2000/svg">
    <circle cx="745" cy="745" r="745" fill="white"/>
    <path d="M983 692C953.729 692 930 715.729 930 745C930 774.271 953.729 798 983 798L983 745L983 692ZM1032.48 782.477C1053.17 761.779 1053.17 728.221 1032.48 707.523L695.187 370.233C674.489 349.536 640.931 349.536 620.233 370.233C599.536 390.931 599.536 424.489 620.233 445.187L920.047 745L620.233 1044.81C599.536 1065.51 599.536 1099.07 620.233 1119.77C640.931 1140.46 674.489 1140.46 695.187 1119.77L1032.48 782.477ZM983 745L983 798L995 798L995 745L995 692L983 692L983 745Z"
          fill="#484848"/>
</svg>
