<svg width="1490" height="1490" viewBox="0 0 1490 1490" fill="none" xmlns="http://www.w3.org/2000/svg">
    <circle cx="745" cy="745" r="745" transform="rotate(180 745 745)" fill="white"/>
    <path d="M507 798C536.271 798 560 774.271 560 745C560 715.729 536.271 692 507 692L507 745L507 798ZM457.523 707.523C436.826 728.221 436.826 761.779 457.523 782.477L794.813 1119.77C815.511 1140.46 849.069 1140.46 869.767 1119.77C890.464 1099.07 890.464 1065.51 869.767 1044.81L569.953 745L869.767 445.187C890.464 424.489 890.464 390.931 869.767 370.233C849.069 349.536 815.511 349.536 794.813 370.233L457.523 707.523ZM507 745L507 692L495 692L495 745L495 798L507 798L507 745Z"
          fill="#484848"/>
</svg>
