<svg width="25" height="24" viewBox="0 0 25 24" fill="none" xmlns="http://www.w3.org/2000/svg">
    <g clip-path="url(#clip0_506_1784)">
        <path d="M12.51 3C14.4117 3 15.9532 4.431 15.9533 6.19629V9.07129H19.5197C20.1806 9.07145 20.66 9.70192 20.4836 10.3389L18.01 19.2666C17.89 19.6998 17.4956 20 17.0461 20H7.97385C7.52437 20 7.12996 19.6998 7.00998 19.2666L4.53635 10.3389C4.35993 9.70194 4.83937 9.0715 5.50022 9.07129H9.06662V6.19629C9.06677 4.43112 10.6085 3.00019 12.51 3ZM12.51 4.30762C11.3865 4.3078 10.476 5.15333 10.4758 6.19629V9.07129H14.5451V6.19629C14.545 5.15321 13.6337 4.30762 12.51 4.30762Z"
              fill="#666666"/>
    </g>
    <defs>
        <clipPath id="clip0_506_1784">
            <rect width="24" height="24" fill="white" transform="translate(0.5)"/>
        </clipPath>
    </defs>
</svg>
