<svg width="25" height="24" viewBox="0 0 25 24" fill="none" xmlns="http://www.w3.org/2000/svg">
    <path d="M10 20C10.2761 20 10.5 19.7761 10.5 19.5V14.5C10.5 14.2239 10.7239 14 11 14H14C14.2761 14 14.5 14.2239 14.5 14.5V19.5C14.5 19.7761 14.7239 20 15 20H19C19.2761 20 19.5 19.7761 19.5 19.5V12H21.197C21.6553 12 21.8721 11.4349 21.5315 11.1284L12.8345 3.30103C12.6443 3.1299 12.3557 3.1299 12.1655 3.30103L3.4685 11.1284C3.12789 11.4349 3.34474 12 3.80298 12H5.5V19.5C5.5 19.7761 5.72386 20 6 20H10Z"
          fill="#666666"/>
</svg>
