<svg width="305" height="95" viewBox="0 0 305 95" fill="none" xmlns="http://www.w3.org/2000/svg">
    <path d="M0.84 85.856L2.632 69.216L6.984 69.472C6.984 74.1653 9.75733 77.9627 15.304 80.864C20.936 83.68 27.2933 85.088 34.376 85.088C41.544 85.088 46.92 84.0213 50.504 81.888C54.088 79.6693 55.88 76.896 55.88 73.568C55.88 67.936 52.8933 62.9013 46.92 58.464C44.4453 56.672 41.8427 55.0933 39.112 53.728C32.8827 50.4853 28.9573 48.4373 27.336 47.584C25.8 46.6453 24.0507 45.7067 22.088 44.768C20.1253 43.8293 18.2907 42.848 16.584 41.824C14.9627 40.7147 13.2133 39.392 11.336 37.856C7.06933 34.4427 4.936 30.6453 4.936 26.464C4.936 22.1973 5.66133 18.4853 7.112 15.328C8.648 12.1707 10.5253 9.696 12.744 7.904C15.048 6.112 17.736 4.61866 20.808 3.424C26.0133 1.54666 31.816 0.607994 38.216 0.607994C44.7013 0.607994 50.9307 2.22933 56.904 5.47199L55.368 20.32H51.016C51.016 12.2987 44.2747 8.28799 30.792 8.28799C24.5627 8.28799 19.8693 9.26933 16.712 11.232C13.64 13.1947 12.104 15.8827 12.104 19.296C12.104 24.7573 20.9787 31.328 38.728 39.008C50.4187 44.0427 57.8853 49.632 61.128 55.776C62.7493 58.848 63.56 62.2187 63.56 65.888C63.56 74.7627 59.976 81.632 52.808 86.496C45.7253 91.36 37.1493 93.792 27.08 93.792C17.0107 93.792 8.264 91.1467 0.84 85.856ZM111.151 94.56C99.9723 94.56 90.6283 90.2507 83.119 81.632C75.695 73.0133 71.983 63.072 71.983 51.808C71.983 44.8107 73.519 38.0693 76.591 31.584C79.663 25.0987 83.5883 19.5947 88.367 15.072C93.231 10.5493 98.5643 6.92266 104.367 4.19199C110.255 1.46133 115.93 0.095993 121.391 0.095993C132.484 0.095993 141.786 4.40533 149.295 13.024C156.804 21.6427 160.559 31.584 160.559 42.848C160.559 51.2107 158.298 59.4027 153.775 67.424C149.252 75.36 143.108 81.888 135.343 87.008C127.663 92.0427 119.599 94.56 111.151 94.56ZM119.087 84.832C128.388 84.832 136.196 81.4187 142.511 74.592C148.911 67.7653 152.111 59.3173 152.111 49.248C152.111 39.1787 148.399 30.1333 140.975 22.112C133.636 14.0907 124.719 10.08 114.223 10.08C105.263 10.08 97.3697 13.3227 90.543 19.808C83.8017 26.208 80.431 33.888 80.431 42.848C80.431 54.4533 83.9723 64.352 91.055 72.544C98.223 80.736 107.567 84.832 119.087 84.832ZM202.757 92H170.245V88.416H174.597C177.157 88.416 178.821 87.904 179.589 86.88C180.357 85.856 180.741 84.4053 180.741 82.528V11.872C180.741 9.99466 180.357 8.544 179.589 7.52C178.821 6.49599 177.157 5.98399 174.597 5.98399H170.245V2.39999H202.757V5.98399H197.893C195.333 5.98399 193.669 6.49599 192.901 7.52C192.133 8.544 191.749 9.99466 191.749 11.872V82.528C191.749 84.4053 192.133 85.856 192.901 86.88C193.669 87.904 195.333 88.416 197.893 88.416H202.757V92ZM287.491 94.048L230.915 18.272V82.528C230.915 86.2827 233.56 88.16 238.851 88.16H243.715V92H212.995V88.16H217.091C222.382 88.16 225.027 86.2827 225.027 82.528V11.872C225.027 8.11733 222.382 6.24 217.091 6.24H212.995V2.39999H233.219L285.955 73.312V11.872C285.955 8.11733 283.395 6.24 278.275 6.24H273.923V2.39999H304.643V6.24H299.779C294.488 6.24 291.843 8.11733 291.843 11.872V91.488C290.904 91.488 289.88 91.872 288.771 92.64C287.747 93.4933 287.32 93.9627 287.491 94.048Z"
          fill="black"/>
</svg>
