<svg width="23" height="23" viewBox="0 0 23 23" fill="none" xmlns="http://www.w3.org/2000/svg">
    <path d="M11.5 3C6.80558 3 3 6.80558 3 11.5C3 16.1944 6.80558 20 11.5 20C16.1944 20 20 16.1944 20 11.5C20 6.80558 16.1944 3 11.5 3ZM11.5 5.98828C12.7292 5.98828 13.7256 7.16593 13.7256 8.6186C13.7256 10.0713 12.7292 11.2489 11.5 11.2489C10.2708 11.2489 9.27436 10.0713 9.27436 8.6186C9.27436 7.16593 10.2708 5.98828 11.5 5.98828ZM15.2672 16.3477H7.73277C7.35499 16.3477 7.04872 16.0414 7.04872 15.6636C7.04872 13.8959 9.04161 12.4629 11.5 12.4629C13.9584 12.4629 15.9513 13.8959 15.9513 15.6636C15.9513 16.0414 15.645 16.3477 15.2672 16.3477Z"
          fill="#666666"/>
</svg>
