<svg width="250" height="129" viewBox="0 0 250 129" fill="none" xmlns="http://www.w3.org/2000/svg">
    <g clip-path="url(#clip0_7_2)">
        <path d="M79.5938 98.5625H85.1718L88.0468 112.516L91.2499 98.5625H95.4374L98.578 112.547L101.516 98.5625H107.094L101.391 120H96.5624L93.328 106.109L90.0938 120H85.1405L79.5938 98.5625ZM107.797 109.125C107.797 107.615 108.089 106.182 108.672 104.828C109.266 103.464 110.062 102.292 111.062 101.312C112.073 100.333 113.276 99.5573 114.672 98.9844C116.068 98.401 117.542 98.1094 119.094 98.1094C121.188 98.1094 123.104 98.6042 124.844 99.5938C126.583 100.573 127.953 101.922 128.953 103.641C129.953 105.349 130.453 107.229 130.453 109.281C130.453 111.323 129.953 113.198 128.953 114.906C127.953 116.615 126.583 117.964 124.844 118.953C123.115 119.932 121.208 120.422 119.125 120.422C117 120.422 115.073 119.932 113.344 118.953C111.615 117.974 110.255 116.625 109.266 114.906C108.286 113.177 107.797 111.25 107.797 109.125ZM113.281 109.156C113.281 111 113.844 112.531 114.969 113.75C116.104 114.969 117.526 115.578 119.234 115.578C120.849 115.578 122.208 114.974 123.312 113.766C124.427 112.557 124.984 111.073 124.984 109.312C124.984 107.521 124.417 106.01 123.281 104.781C122.156 103.552 120.771 102.938 119.125 102.938C117.479 102.938 116.094 103.536 114.969 104.734C113.844 105.932 113.281 107.406 113.281 109.156ZM133.422 120V98.5625H140.203C142.005 98.5625 143.375 98.6719 144.312 98.8906C145.25 99.099 146.078 99.5 146.797 100.094C147.62 100.76 148.266 101.62 148.734 102.672C149.214 103.714 149.453 104.807 149.453 105.953C149.453 107.026 149.25 108.031 148.844 108.969C148.438 109.906 147.859 110.703 147.109 111.359C146.641 111.745 146.193 112.036 145.766 112.234C145.339 112.422 144.786 112.578 144.109 112.703L149.938 120H143.656L138.672 113.062V120H133.422ZM138.672 109.312H140.625C141.76 109.312 142.641 109.047 143.266 108.516C143.891 107.974 144.203 107.224 144.203 106.266C144.203 105.349 143.849 104.604 143.141 104.031C142.818 103.792 142.479 103.625 142.125 103.531C141.771 103.438 141.281 103.391 140.656 103.391H138.672V109.312ZM152.297 120V98.5625H157.766V108.219L163.875 98.5625H169.641L162.531 109.25L170.078 120H163.688L157.766 110.719V120H152.297ZM171.703 120V98.5625H183.406V103.391H176.953V107.016H183.188V111.844H176.953V120H171.703ZM185.984 120V98.5625H191.453V115.172H197.781V120H185.984ZM198.578 109.125C198.578 107.615 198.87 106.182 199.453 104.828C200.047 103.464 200.844 102.292 201.844 101.312C202.854 100.333 204.057 99.5573 205.453 98.9844C206.849 98.401 208.323 98.1094 209.875 98.1094C211.969 98.1094 213.885 98.6042 215.625 99.5938C217.365 100.573 218.734 101.922 219.734 103.641C220.734 105.349 221.234 107.229 221.234 109.281C221.234 111.323 220.734 113.198 219.734 114.906C218.734 116.615 217.365 117.964 215.625 118.953C213.896 119.932 211.99 120.422 209.906 120.422C207.781 120.422 205.854 119.932 204.125 118.953C202.396 117.974 201.036 116.625 200.047 114.906C199.068 113.177 198.578 111.25 198.578 109.125ZM204.062 109.156C204.062 111 204.625 112.531 205.75 113.75C206.885 114.969 208.307 115.578 210.016 115.578C211.63 115.578 212.99 114.974 214.094 113.766C215.208 112.557 215.766 111.073 215.766 109.312C215.766 107.521 215.198 106.01 214.062 104.781C212.938 103.552 211.552 102.938 209.906 102.938C208.26 102.938 206.875 103.536 205.75 104.734C204.625 105.932 204.062 107.406 204.062 109.156ZM221.938 98.5625H227.516L230.391 112.516L233.594 98.5625H237.781L240.922 112.547L243.859 98.5625H249.438L243.734 120H238.906L235.672 106.109L232.438 120H227.484L221.938 98.5625Z"
              fill="#0A0F17"/>
        <path d="M38.3594 68.7656H54.8594C54.8594 71.4531 55.4531 73.5938 56.6406 75.1875C57.8281 76.75 59.4375 77.5312 61.4688 77.5312C63.25 77.5312 64.75 76.9375 65.9688 75.75C67.1875 74.5625 67.7969 73.1094 67.7969 71.3906C67.7969 69.6094 67.1562 68.2031 65.875 67.1719C64.9062 66.3594 63.9062 65.7031 62.875 65.2031C61.8438 64.7031 58.7188 63.4062 53.5 61.3125C48.9375 59.4375 45.4375 56.9688 43 53.9062C40.5938 50.8438 39.3906 47.3594 39.3906 43.4531C39.3906 39.9531 40.375 36.75 42.3438 33.8438C44.3438 30.9062 47.0625 28.5938 50.5 26.9062C53.9688 25.1875 57.7812 24.3281 61.9375 24.3281C65.4375 24.3281 68.7188 24.9844 71.7812 26.2969C74.875 27.6094 77.3906 29.4219 79.3281 31.7344C80.7656 33.4844 81.7969 35.2812 82.4219 37.125C83.0469 38.9375 83.4531 41.3594 83.6406 44.3906H67.3281C67.0469 42.2344 66.4375 40.6562 65.5 39.6562C64.5938 38.6562 63.25 38.1562 61.4688 38.1562C59.875 38.1562 58.5312 38.6562 57.4375 39.6562C56.3438 40.625 55.7969 41.8281 55.7969 43.2656C55.7969 44.8281 56.3438 46.0312 57.4375 46.875C58.2188 47.6562 59.1094 48.3281 60.1094 48.8906C61.1406 49.4219 64.1562 50.8125 69.1562 53.0625C74.5312 55.5 78.3906 58.1562 80.7344 61.0312C83.0781 63.9062 84.25 67.4219 84.25 71.5781C84.25 77.7344 82.25 82.5781 78.25 86.1094C74.25 89.6094 68.75 91.3594 61.75 91.3594C56.0625 91.3594 51.3125 90.2344 47.5 87.9844C43.6875 85.7031 41.0469 82.4062 39.5781 78.0938C39.0469 76.7188 38.7031 75.4375 38.5469 74.25C38.4219 73.0312 38.3594 71.2031 38.3594 68.7656ZM89.8281 57.375C89.8281 52.8438 90.7031 48.5469 92.4531 44.4844C94.2344 40.3906 96.625 36.875 99.625 33.9375C102.656 31 106.266 28.6719 110.453 26.9531C114.641 25.2031 119.062 24.3281 123.719 24.3281C130 24.3281 135.75 25.8125 140.969 28.7812C146.188 31.7188 150.297 35.7656 153.297 40.9219C156.297 46.0469 157.797 51.6875 157.797 57.8438C157.797 63.9688 156.297 69.5938 153.297 74.7188C150.297 79.8438 146.188 83.8906 140.969 86.8594C135.781 89.7969 130.062 91.2656 123.812 91.2656C117.438 91.2656 111.656 89.7969 106.469 86.8594C101.281 83.9219 97.2031 79.875 94.2344 74.7188C91.2969 69.5312 89.8281 63.75 89.8281 57.375ZM106.281 57.4688C106.281 63 107.969 67.5938 111.344 71.25C114.75 74.9062 119.016 76.7344 124.141 76.7344C128.984 76.7344 133.062 74.9219 136.375 71.2969C139.719 67.6719 141.391 63.2188 141.391 57.9375C141.391 52.5625 139.688 48.0312 136.281 44.3438C132.906 40.6562 128.75 38.8125 123.812 38.8125C118.875 38.8125 114.719 40.6094 111.344 44.2031C107.969 47.7969 106.281 52.2188 106.281 57.4688ZM166.703 90V25.6875H183.109V90H166.703ZM195.578 90V25.6875H209.688L234.812 66.0938L234.156 25.6875H249.906V90H235.609L210.719 50.8125L211.328 90H195.578Z"
              fill="#5485E4"/>
    </g>
    <defs>
        <clipPath id="clip0_7_2">
            <rect width="250" height="129" fill="white"/>
        </clipPath>
    </defs>
</svg>
